<svg width="3472" height="3264" viewBox="0 0 3472 3264" fill="none" xmlns="http://www.w3.org/2000/svg">
<g filter="url(#filter0_d_168_271)">
<path d="M628.774 923.522L471.56 475.282C471.56 475.282 846.258 903.504 932.963 942.607C1019.67 981.71 1037.75 967.715 1037.75 967.715C1037.75 967.715 1086.91 945.08 1106.78 874.462C1126.66 803.844 1135.16 780.171 1143.24 707.3C1151.33 634.429 1162.52 232.31 1162.52 232.31L1349 661.583C1349 661.583 1386.86 718.424 1431.46 762.829C1476.06 807.233 1547.41 783.342 1547.41 783.342C1547.41 783.342 1611.62 766.946 1648.11 571.418C1684.6 375.89 1762.69 160.657 1762.69 160.657L1921.06 618.424C1921.06 618.424 1960.63 687.098 2016.22 690.586C2071.82 694.074 2121.06 630.973 2121.06 630.973L2240.28 431.558L2392.18 181.241L2364.88 616.39C2364.88 616.39 2361.24 696.726 2411.92 728.273C2462.59 759.82 2514.71 734.723 2514.71 734.723L2632.59 663.067L2787.69 507.132L3006.81 298.855L2849.23 695.572C2849.23 695.572 2825.41 801.118 2840.77 830.449C2856.13 859.781 2916.63 846.556 2916.63 846.556L3044.26 815.227L3362.51 727.776L3057.46 968.485L2957.88 1078.73C2957.88 1078.73 2897.68 1143.04 2912.32 1217.33C2926.97 1291.63 2974.03 1319.17 2974.03 1319.17L3124.93 1420.55L3359.48 1525.66L3201.9 1530.91L3074.71 1555.08L2942.76 1599.37C2942.76 1599.37 2888.65 1628.13 2853.19 1689.82C2817.73 1751.52 2824.34 1813.97 2824.34 1813.97L2846.52 1964L2908.3 2148.68L2780.72 2033.63L2660.16 1952.31C2660.16 1952.31 2586.28 1904.56 2506.45 1895.77C2426.62 1886.98 2413.64 1903.56 2388.13 1918.6C2362.61 1933.64 2305.01 1990.17 2289.13 2019.43C2273.26 2048.69 2245.38 2073.42 2228.91 2145.77C2212.43 2218.11 2204.47 2283.42 2204.47 2283.42L2210.09 2445.66L2123.34 2323.34L1982.25 2205.56C1982.25 2205.56 1912.93 2150.64 1860.62 2141.19C1817.97 2133.48 1792.14 2138.67 1749.89 2149.37C1702.84 2161.29 1676.41 2173.5 1636.32 2202.77C1599.52 2229.63 1582.07 2250.38 1554.12 2287.63C1517.33 2336.66 1501.73 2369.53 1480.71 2428.26C1463 2477.75 1449.99 2559.85 1449.99 2559.85L1441.29 2698.5C1441.29 2698.5 1436.91 2567.79 1406.78 2493.22C1383.95 2436.71 1371.29 2399.19 1325.87 2361.81C1288.45 2331.03 1261.05 2314.51 1213.76 2313.55C1163.85 2312.55 1137.85 2336.62 1093.81 2362.38C1016.03 2407.89 926.224 2526.99 926.224 2526.99L760.835 2740.53L658.176 2899.76L563.76 3095.43L700.217 2537.4C700.217 2537.4 705.039 2460.54 667.642 2441.17C630.245 2421.81 569.028 2452.01 569.028 2452.01L467.833 2509.58L338.054 2625.5L510.605 2325.79C510.605 2325.79 538.402 2253 517.412 2217.29C502.469 2191.86 457.19 2175.69 457.19 2175.69L366.633 2170L139.468 2170.88L408.809 2001.31L486.47 1932.8C486.47 1932.8 525.206 1885.32 521.485 1850.28C517.108 1809.06 452.877 1774.48 452.877 1774.48L328.444 1721.29L103.053 1665.92L278.595 1626.25L420.259 1567.06C420.259 1567.06 475.976 1545.93 489.982 1513.18C505.522 1476.84 475.593 1412.43 475.593 1412.43L402.214 1328.77L277.192 1229.01L135.296 1152.03L592.978 1180.75C592.978 1180.75 628.963 1189.06 670.472 1170.86C711.981 1152.66 691.501 1087.45 691.501 1087.45L628.774 923.522Z" fill="#FFAFCC" stroke="#A2D2FF" stroke-width="80"/>
<path d="M628.774 879.522L471.56 431.282C471.56 431.282 846.258 859.504 932.963 898.607C1019.67 937.71 1037.75 923.715 1037.75 923.715C1037.75 923.715 1086.91 901.08 1106.78 830.462C1126.66 759.844 1135.16 736.171 1143.24 663.3C1151.33 590.429 1162.52 188.31 1162.52 188.31L1349 617.583C1349 617.583 1386.86 674.424 1431.46 718.829C1476.06 763.233 1547.41 739.342 1547.41 739.342C1547.41 739.342 1611.62 722.946 1648.11 527.418C1684.6 331.89 1762.69 116.657 1762.69 116.657L1921.06 574.424C1921.06 574.424 1960.63 643.098 2016.22 646.586C2071.82 650.074 2121.06 586.973 2121.06 586.973L2240.28 387.558L2392.18 137.241L2364.88 572.39C2364.88 572.39 2361.24 652.726 2411.92 684.273C2462.59 715.82 2514.71 690.723 2514.71 690.723L2632.59 619.067L2787.69 463.132L3006.81 254.855L2849.23 651.572C2849.23 651.572 2825.41 757.118 2840.77 786.449C2856.13 815.781 2916.63 802.556 2916.63 802.556L3044.26 771.227L3362.51 683.776L3057.46 924.485L2957.88 1034.73C2957.88 1034.73 2897.68 1099.04 2912.32 1173.33C2926.97 1247.63 2974.03 1275.17 2974.03 1275.17L3124.93 1376.55L3359.48 1481.66L3201.9 1486.91L3074.71 1511.08L2942.76 1555.37C2942.76 1555.37 2888.65 1584.13 2853.19 1645.82C2817.73 1707.52 2824.34 1769.97 2824.34 1769.97L2846.52 1920L2908.3 2104.68L2780.72 1989.63L2660.16 1908.31C2660.16 1908.31 2586.28 1860.56 2506.45 1851.77C2426.62 1842.98 2413.64 1859.56 2388.13 1874.6C2362.61 1889.64 2305.01 1946.17 2289.13 1975.43C2273.26 2004.69 2245.38 2029.42 2228.91 2101.77C2212.43 2174.11 2204.47 2239.42 2204.47 2239.42L2210.09 2401.66L2123.34 2279.34L1982.25 2161.56C1982.25 2161.56 1912.93 2106.64 1860.62 2097.19C1817.97 2089.48 1792.14 2094.67 1749.89 2105.37C1702.84 2117.29 1676.41 2129.5 1636.32 2158.77C1599.52 2185.63 1582.07 2206.38 1554.12 2243.63C1517.33 2292.66 1501.73 2325.53 1480.71 2384.26C1463 2433.75 1449.99 2515.85 1449.99 2515.85L1441.29 2654.5C1441.29 2654.5 1436.91 2523.79 1406.78 2449.22C1383.95 2392.71 1371.29 2355.19 1325.87 2317.81C1288.45 2287.03 1261.05 2270.51 1213.76 2269.55C1163.85 2268.55 1137.85 2292.62 1093.81 2318.38C1016.03 2363.89 926.224 2482.99 926.224 2482.99L760.835 2696.53L658.176 2855.76L563.76 3051.43L700.217 2493.4C700.217 2493.4 705.039 2416.54 667.642 2397.17C630.245 2377.81 569.028 2408.01 569.028 2408.01L467.833 2465.58L338.054 2581.5L510.605 2281.79C510.605 2281.79 538.402 2209 517.412 2173.29C502.469 2147.86 457.19 2131.69 457.19 2131.69L366.633 2126L139.468 2126.88L408.809 1957.31L486.47 1888.8C486.47 1888.8 525.206 1841.32 521.485 1806.28C517.108 1765.06 452.877 1730.48 452.877 1730.48L328.444 1677.29L103.053 1621.92L278.595 1582.25L420.259 1523.06C420.259 1523.06 475.976 1501.93 489.982 1469.18C505.522 1432.84 475.593 1368.43 475.593 1368.43L402.214 1284.77L277.192 1185.01L135.296 1108.03L592.978 1136.75C592.978 1136.75 628.963 1145.06 670.472 1126.86C711.981 1108.66 691.501 1043.45 691.501 1043.45L628.774 879.522Z" fill="#FFAFCC" stroke="black" stroke-width="35"/>
</g>
<defs>
<filter id="filter0_d_168_271" x="0" y="40.9062" width="3471.29" height="3155.91" filterUnits="userSpaceOnUse" color-interpolation-filters="sRGB">
<feFlood flood-opacity="0" result="BackgroundImageFix"/>
<feColorMatrix in="SourceAlpha" type="matrix" values="0 0 0 0 0 0 0 0 0 0 0 0 0 0 0 0 0 0 127 0" result="hardAlpha"/>
<feOffset dx="80" dy="80"/>
<feGaussianBlur stdDeviation="2"/>
<feComposite in2="hardAlpha" operator="out"/>
<feColorMatrix type="matrix" values="0 0 0 0 0 0 0 0 0 0 0 0 0 0 0 0 0 0 1 0"/>
<feBlend mode="normal" in2="BackgroundImageFix" result="effect1_dropShadow_168_271"/>
<feBlend mode="normal" in="SourceGraphic" in2="effect1_dropShadow_168_271" result="shape"/>
</filter>
</defs>
</svg>
